<svg width="16" height="10" viewBox="0 0 16 10" fill="none" xmlns="http://www.w3.org/2000/svg">
<path fill-rule="evenodd" clip-rule="evenodd" d="M2.87 4.75L4.84 6.72C4.91369 6.78866 4.97279 6.87146 5.01378 6.96346C5.05477 7.05546 5.07681 7.15477 5.07859 7.25548C5.08037 7.35618 5.06184 7.45621 5.02412 7.5496C4.9864 7.64298 4.93026 7.72782 4.85904 7.79904C4.78782 7.87026 4.70299 7.9264 4.6096 7.96412C4.51621 8.00184 4.41618 8.02037 4.31548 8.01859C4.21477 8.01681 4.11546 7.99477 4.02346 7.95378C3.93146 7.91279 3.84866 7.85369 3.78 7.78L0.53 4.53L0 4L0.53 3.47L3.78 0.219999C3.92217 0.0875191 4.11022 0.0153959 4.30452 0.0188241C4.49882 0.0222523 4.68421 0.100964 4.82162 0.238377C4.95903 0.37579 5.03775 0.561175 5.04117 0.755476C5.0446 0.949778 4.97248 1.13782 4.84 1.28L2.87 3.25H12.75C13.612 3.25 14.4386 3.59241 15.0481 4.2019C15.6576 4.8114 16 5.63805 16 6.5C16 7.36195 15.6576 8.1886 15.0481 8.7981C14.4386 9.40759 13.612 9.75 12.75 9.75H10.75C10.5511 9.75 10.3603 9.67098 10.2197 9.53033C10.079 9.38968 10 9.19891 10 9C10 8.80109 10.079 8.61032 10.2197 8.46967C10.3603 8.32902 10.5511 8.25 10.75 8.25H12.75C13.2141 8.25 13.6592 8.06562 13.9874 7.73744C14.3156 7.40925 14.5 6.96413 14.5 6.5C14.5 6.03587 14.3156 5.59075 13.9874 5.26256C13.6592 4.93437 13.2141 4.75 12.75 4.75H2.87Z" fill="white"/>
</svg>
