<svg width="32" height="37" viewBox="0 0 32 37" fill="none" xmlns="http://www.w3.org/2000/svg">
<g clip-path="url(#clip0_11_70)">
<path d="M9.14286 0C10.4071 0 11.4286 1.02143 11.4286 2.28571V4.57143H20.5714V2.28571C20.5714 1.02143 21.5929 0 22.8571 0C24.1214 0 25.1429 1.02143 25.1429 2.28571V4.57143H28.5714C30.4643 4.57143 32 6.10714 32 8V11.4286H0V8C0 6.10714 1.53571 4.57143 3.42857 4.57143H6.85714V2.28571C6.85714 1.02143 7.87857 0 9.14286 0ZM0 13.7143H32V33.1429C32 35.0357 30.4643 36.5714 28.5714 36.5714H3.42857C1.53571 36.5714 0 35.0357 0 33.1429V13.7143ZM4.57143 19.4286V21.7143C4.57143 22.3429 5.08571 22.8571 5.71429 22.8571H8C8.62857 22.8571 9.14286 22.3429 9.14286 21.7143V19.4286C9.14286 18.8 8.62857 18.2857 8 18.2857H5.71429C5.08571 18.2857 4.57143 18.8 4.57143 19.4286ZM13.7143 19.4286V21.7143C13.7143 22.3429 14.2286 22.8571 14.8571 22.8571H17.1429C17.7714 22.8571 18.2857 22.3429 18.2857 21.7143V19.4286C18.2857 18.8 17.7714 18.2857 17.1429 18.2857H14.8571C14.2286 18.2857 13.7143 18.8 13.7143 19.4286ZM24 18.2857C23.3714 18.2857 22.8571 18.8 22.8571 19.4286V21.7143C22.8571 22.3429 23.3714 22.8571 24 22.8571H26.2857C26.9143 22.8571 27.4286 22.3429 27.4286 21.7143V19.4286C27.4286 18.8 26.9143 18.2857 26.2857 18.2857H24ZM4.57143 28.5714V30.8571C4.57143 31.4857 5.08571 32 5.71429 32H8C8.62857 32 9.14286 31.4857 9.14286 30.8571V28.5714C9.14286 27.9429 8.62857 27.4286 8 27.4286H5.71429C5.08571 27.4286 4.57143 27.9429 4.57143 28.5714ZM14.8571 27.4286C14.2286 27.4286 13.7143 27.9429 13.7143 28.5714V30.8571C13.7143 31.4857 14.2286 32 14.8571 32H17.1429C17.7714 32 18.2857 31.4857 18.2857 30.8571V28.5714C18.2857 27.9429 17.7714 27.4286 17.1429 27.4286H14.8571ZM22.8571 28.5714V30.8571C22.8571 31.4857 23.3714 32 24 32H26.2857C26.9143 32 27.4286 31.4857 27.4286 30.8571V28.5714C27.4286 27.9429 26.9143 27.4286 26.2857 27.4286H24C23.3714 27.4286 22.8571 27.9429 22.8571 28.5714Z" fill="black"/>
</g>
<defs>
<clipPath id="clip0_11_70">
<rect width="32" height="36.5714" fill="white"/>
</clipPath>
</defs>
</svg>
