<svg width="25" height="21" viewBox="0 0 25 21" fill="none" xmlns="http://www.w3.org/2000/svg">
<path d="M9.38348 6.61607C9.38348 7.18439 9.13655 7.72944 8.69702 8.1313C8.25748 8.53316 7.66133 8.75893 7.03973 8.75893C6.41813 8.75893 5.82199 8.53316 5.38245 8.1313C4.94291 7.72944 4.69598 7.18439 4.69598 6.61607C4.69598 6.04775 4.94291 5.5027 5.38245 5.10084C5.82199 4.69898 6.41813 4.47321 7.03973 4.47321C7.66133 4.47321 8.25748 4.69898 8.69702 5.10084C9.13655 5.5027 9.38348 6.04775 9.38348 6.61607Z" fill="black"/>
<path d="M3.13348 0.1875C2.30468 0.1875 1.50983 0.48852 0.923775 1.02434C0.337724 1.56016 0.00848389 2.28688 0.00848389 3.04464V17.3304C0.00848389 18.0881 0.337724 18.8148 0.923775 19.3507C1.50983 19.8865 2.30468 20.1875 3.13348 20.1875H21.8835C22.7123 20.1875 23.5071 19.8865 24.0932 19.3507C24.6792 18.8148 25.0085 18.0881 25.0085 17.3304V3.04464C25.0085 2.28688 24.6792 1.56016 24.0932 1.02434C23.5071 0.48852 22.7123 0.1875 21.8835 0.1875H3.13348ZM21.8835 1.61607C22.2979 1.61607 22.6953 1.76658 22.9883 2.03449C23.2814 2.3024 23.446 2.66576 23.446 3.04464V12.3304L17.5444 9.54893C17.3979 9.48182 17.232 9.45854 17.0702 9.48238C16.9084 9.50622 16.7589 9.57598 16.6429 9.68179L10.846 14.9818L6.68973 12.4504C6.53967 12.359 6.35967 12.3179 6.18026 12.3341C6.00085 12.3502 5.83307 12.4226 5.70536 12.5389L1.57098 15.9018V3.04464C1.57098 2.66576 1.7356 2.3024 2.02863 2.03449C2.32166 1.76658 2.71908 1.61607 3.13348 1.61607H21.8835Z" fill="black"/>
</svg>
