<svg width="32" height="43" viewBox="0 0 32 43" fill="none" xmlns="http://www.w3.org/2000/svg">
<g clip-path="url(#clip0_11_85)">
<path d="M17.975 41.6C22.25 36.25 32 23.2833 32 16C32 7.16667 24.8333 0 16 0C7.16667 0 0 7.16667 0 16C0 23.2833 9.75 36.25 14.025 41.6C15.05 42.875 16.95 42.875 17.975 41.6ZM16 10.6667C17.4145 10.6667 18.771 11.2286 19.7712 12.2288C20.7714 13.229 21.3333 14.5855 21.3333 16C21.3333 17.4145 20.7714 18.771 19.7712 19.7712C18.771 20.7714 17.4145 21.3333 16 21.3333C14.5855 21.3333 13.229 20.7714 12.2288 19.7712C11.2286 18.771 10.6667 17.4145 10.6667 16C10.6667 14.5855 11.2286 13.229 12.2288 12.2288C13.229 11.2286 14.5855 10.6667 16 10.6667Z" fill="black"/>
</g>
<defs>
<clipPath id="clip0_11_85">
<rect width="32" height="42.6667" fill="white"/>
</clipPath>
</defs>
</svg>
