<svg width="16" height="16" viewBox="0 0 16 16" fill="none" xmlns="http://www.w3.org/2000/svg">
<path d="M3 0C2.20435 0 1.44129 0.316071 0.87868 0.87868C0.316071 1.44129 0 2.20435 0 3V11C0 11.7956 0.316071 12.5587 0.87868 13.1213C1.44129 13.6839 2.20435 14 3 14H6.6C6.43647 13.6804 6.30483 13.3454 6.207 13H3C2.46957 13 1.96086 12.7893 1.58579 12.4142C1.21071 12.0391 1 11.5304 1 11V3C1 2.46957 1.21071 1.96086 1.58579 1.58579C1.96086 1.21071 2.46957 1 3 1H11C11.5304 1 12.0391 1.21071 12.4142 1.58579C12.7893 1.96086 13 2.46957 13 3V6.207C13.349 6.306 13.683 6.437 14 6.6V3C14 2.20435 13.6839 1.44129 13.1213 0.87868C12.5587 0.316071 11.7956 0 11 0H3ZM6.5 7H8.337C9.232 6.37 10.323 6 11.5 6H6.5C6.36739 6 6.24021 6.05268 6.14645 6.14645C6.05268 6.24021 6 6.36739 6 6.5C6 6.63261 6.05268 6.75979 6.14645 6.85355C6.24021 6.94732 6.36739 7 6.5 7ZM2.5 2C2.36739 2 2.24021 2.05268 2.14645 2.14645C2.05268 2.24021 2 2.36739 2 2.5C2 2.63261 2.05268 2.75979 2.14645 2.85355C2.24021 2.94732 2.36739 3 2.5 3H11.5C11.6326 3 11.7598 2.94732 11.8536 2.85355C11.9473 2.75979 12 2.63261 12 2.5C12 2.36739 11.9473 2.24021 11.8536 2.14645C11.7598 2.05268 11.6326 2 11.5 2H2.5ZM3.5 8C3.89782 8 4.27936 7.84196 4.56066 7.56066C4.84196 7.27936 5 6.89782 5 6.5C5 6.10218 4.84196 5.72064 4.56066 5.43934C4.27936 5.15804 3.89782 5 3.5 5C3.10218 5 2.72064 5.15804 2.43934 5.43934C2.15804 5.72064 2 6.10218 2 6.5C2 6.89782 2.15804 7.27936 2.43934 7.56066C2.72064 7.84196 3.10218 8 3.5 8ZM3.5 7C3.36739 7 3.24021 6.94732 3.14645 6.85355C3.05268 6.75979 3 6.63261 3 6.5C3 6.36739 3.05268 6.24021 3.14645 6.14645C3.24021 6.05268 3.36739 6 3.5 6C3.63261 6 3.75979 6.05268 3.85355 6.14645C3.94732 6.24021 4 6.36739 4 6.5C4 6.63261 3.94732 6.75979 3.85355 6.85355C3.75979 6.94732 3.63261 7 3.5 7ZM3.5 12C3.89782 12 4.27936 11.842 4.56066 11.5607C4.84196 11.2794 5 10.8978 5 10.5C5 10.1022 4.84196 9.72064 4.56066 9.43934C4.27936 9.15804 3.89782 9 3.5 9C3.10218 9 2.72064 9.15804 2.43934 9.43934C2.15804 9.72064 2 10.1022 2 10.5C2 10.8978 2.15804 11.2794 2.43934 11.5607C2.72064 11.842 3.10218 12 3.5 12ZM3.5 10C3.63261 10 3.75979 10.0527 3.85355 10.1464C3.94732 10.2402 4 10.3674 4 10.5C4 10.6326 3.94732 10.7598 3.85355 10.8536C3.75979 10.9473 3.63261 11 3.5 11C3.36739 11 3.24021 10.9473 3.14645 10.8536C3.05268 10.7598 3 10.6326 3 10.5C3 10.3674 3.05268 10.2402 3.14645 10.1464C3.24021 10.0527 3.36739 10 3.5 10ZM16 11.5C16 12.6935 15.5259 13.8381 14.682 14.682C13.8381 15.5259 12.6935 16 11.5 16C10.3065 16 9.16193 15.5259 8.31802 14.682C7.47411 13.8381 7 12.6935 7 11.5C7 10.3065 7.47411 9.16193 8.31802 8.31802C9.16193 7.47411 10.3065 7 11.5 7C12.6935 7 13.8381 7.47411 14.682 8.31802C15.5259 9.16193 16 10.3065 16 11.5ZM12 9.5C12 9.36739 11.9473 9.24021 11.8536 9.14645C11.7598 9.05268 11.6326 9 11.5 9C11.3674 9 11.2402 9.05268 11.1464 9.14645C11.0527 9.24021 11 9.36739 11 9.5V11H9.5C9.36739 11 9.24021 11.0527 9.14645 11.1464C9.05268 11.2402 9 11.3674 9 11.5C9 11.6326 9.05268 11.7598 9.14645 11.8536C9.24021 11.9473 9.36739 12 9.5 12H11V13.5C11 13.6326 11.0527 13.7598 11.1464 13.8536C11.2402 13.9473 11.3674 14 11.5 14C11.6326 14 11.7598 13.9473 11.8536 13.8536C11.9473 13.7598 12 13.6326 12 13.5V12H13.5C13.6326 12 13.7598 11.9473 13.8536 11.8536C13.9473 11.7598 14 11.6326 14 11.5C14 11.3674 13.9473 11.2402 13.8536 11.1464C13.7598 11.0527 13.6326 11 13.5 11H12V9.5Z" fill="white"/>
</svg>
