<svg width="20" height="20" viewBox="0 0 20 20" fill="none" xmlns="http://www.w3.org/2000/svg">
<path d="M18 15.15L17 14.15V3.615C17 3.46167 16.936 3.32067 16.808 3.192C16.6794 3.064 16.5384 3 16.385 3H5.85004L4.85004 2H16.385C16.845 2 17.229 2.15434 17.537 2.463C17.8457 2.771 18 3.155 18 3.615V15.15ZM18.492 19.908L16.585 18H3.61504C3.15504 18 2.77104 17.846 2.46304 17.538C2.15437 17.2293 2.00004 16.845 2.00004 16.385V3.415L0.092041 1.508L0.800041 0.800003L19.2 19.2L18.492 19.908ZM5.50004 14.5L7.46204 11.923L9.21204 14.038L10.729 12.15L3.00004 4.421V16.385C3.00004 16.5383 3.06404 16.6793 3.19204 16.808C3.32071 16.936 3.46171 17 3.61504 17H15.58L13.08 14.5H5.50004Z" fill="black"/>
</svg>
