<svg width="448" height="512" viewBox="0 0 448 512" fill="none" xmlns="http://www.w3.org/2000/svg">
<path d="M224 256C257.948 256 290.505 242.514 314.51 218.51C338.514 194.505 352 161.948 352 128C352 94.0523 338.514 61.495 314.51 37.4903C290.505 13.4857 257.948 0 224 0C190.052 0 157.495 13.4857 133.49 37.4903C109.486 61.495 96 94.0523 96 128C96 161.948 109.486 194.505 133.49 218.51C157.495 242.514 190.052 256 224 256ZM178.3 304C79.8 304 0 383.8 0 482.3C0 498.7 13.3 512 29.7 512H418.3C434.7 512 448 498.7 448 482.3C448 383.8 368.2 304 269.7 304H178.3Z" fill="#0693E3"/>
</svg>
